<?xml version="1.0" encoding="UTF-8" standalone="no"?>
<svg
   xmlns:dc="http://purl.org/dc/elements/1.1/"
   xmlns:cc="http://creativecommons.org/ns#"
   xmlns:rdf="http://www.w3.org/1999/02/22-rdf-syntax-ns#"
   xmlns:svg="http://www.w3.org/2000/svg"
   xmlns="http://www.w3.org/2000/svg"
   xmlns:sodipodi="http://sodipodi.sourceforge.net/DTD/sodipodi-0.dtd"
   xmlns:inkscape="http://www.inkscape.org/namespaces/inkscape"
   version="1.1"
   id="svg5332"
   viewBox="0 0 108.237 94.5861"
   height="26.6943mm"
   width="30.546886mm"
   sodipodi:docname="1489136479.svg"
   inkscape:version="1.0.2-2 (e86c870879, 2021-01-15)">
  <sodipodi:namedview
     pagecolor="#ffffff"
     bordercolor="#666666"
     borderopacity="1"
     objecttolerance="10"
     gridtolerance="10"
     guidetolerance="10"
     inkscape:pageopacity="0"
     inkscape:pageshadow="2"
     inkscape:window-width="1920"
     inkscape:window-height="1013"
     id="namedview8"
     showgrid="false"
     showguides="true"
     inkscape:guide-bbox="true"
     inkscape:zoom="3.0834959"
     inkscape:cx="52.49362"
     inkscape:cy="44.209702"
     inkscape:window-x="-9"
     inkscape:window-y="-9"
     inkscape:window-maximized="1"
     inkscape:current-layer="svg5332">
    <sodipodi:guide
       position="-166.65426,136.45411"
       orientation="0.70710678,-0.70710678"
       id="guide10" />
  </sodipodi:namedview>
  <title
     id="title7223">Satellite</title>
  <defs
     id="defs5334" />
  <metadata
     id="metadata5337">
    <rdf:RDF>
      <cc:Work
         rdf:about="">
        <dc:format>image/svg+xml</dc:format>
        <dc:type
           rdf:resource="http://purl.org/dc/dcmitype/StillImage" />
        <dc:title>Satellite</dc:title>
        <cc:license
           rdf:resource="http://creativecommons.org/publicdomain/zero/1.0/" />
        <dc:creator>
          <cc:Agent>
            <dc:title>Josh &quot;Cheeseness&quot; Bush</dc:title>
          </cc:Agent>
        </dc:creator>
        <dc:description>Originally created for the official shirt for the 2014 Open Source Developers' Conference held at Griffith University.</dc:description>
        <dc:subject>
          <rdf:Bag>
            <rdf:li>satellite</rdf:li>
          </rdf:Bag>
        </dc:subject>
        <dc:date>2014-10-22</dc:date>
        <dc:coverage />
      </cc:Work>
      <cc:License
         rdf:about="http://creativecommons.org/publicdomain/zero/1.0/">
        <cc:permits
           rdf:resource="http://creativecommons.org/ns#Reproduction" />
        <cc:permits
           rdf:resource="http://creativecommons.org/ns#Distribution" />
        <cc:permits
           rdf:resource="http://creativecommons.org/ns#DerivativeWorks" />
      </cc:License>
    </rdf:RDF>
  </metadata>
  <g
     transform="matrix(-0.38302222,0.3213938,-0.3213938,-0.38302222,411.24909,91.327336)"
     id="layer1">
    <path
       id="path9574"
       d="m 477.69004,477.65545 c -1.2274,0 -2.2154,0.988 -2.2154,2.2154 v 28.541 c 0,1.2273 0.988,2.2154 2.2154,2.2154 h 2.1012 v 13.7616 h -16.6642 v -12.8391 c 0,-1.2274 -0.9881,-2.2154 -2.2155,-2.2154 h -96.14971 c -1.2273,0 -2.2154,0.988 -2.2154,2.2154 v 30.0659 c 0,1.2273 0.9881,2.2154 2.2154,2.2154 h 96.14971 c 1.2274,0 2.2155,-0.9881 2.2155,-2.2154 v -12.8392 h 16.6642 v 19.932 c 0,1.2274 0.9881,2.2154 2.2154,2.2154 h 17.0779 c 1.2273,0 2.2154,-0.988 2.2154,-2.2154 v -19.932 h 16.6659 v 12.8392 c 0,1.2273 0.9881,2.2154 2.2155,2.2154 h 96.1497 c 1.2273,0 2.2154,-0.9881 2.2154,-2.2154 v -30.0659 c 0,-1.2274 -0.9881,-2.2154 -2.2154,-2.2154 h -96.1497 c -1.2274,0 -2.2155,0.988 -2.2155,2.2154 v 12.8391 h -16.6659 v -13.7616 h 2.1012 c 1.2274,0 2.2154,-0.9881 2.2154,-2.2154 v -28.541 c 0,-1.2274 -0.988,-2.2154 -2.2154,-2.2154 z m 12.8564,75.5929 c -9.512,0 -18.9661,1.9574 -25.6921,5.3205 -6.726,3.363 -10.641,8.09 -10.641,12.846 h 34.7563 l 1.5768,19.3591 1.5768,-19.3591 h 34.7563 c 0,-4.756 -3.915,-9.483 -10.641,-12.846 -6.726,-3.3631 -16.1801,-5.3205 -25.6921,-5.3205 z"
       style="color:#000000;clip-rule:nonzero;display:inline;overflow:visible;visibility:visible;color-interpolation:sRGB;color-interpolation-filters:linearRGB;fill:#808080;fill-opacity:1;fill-rule:nonzero;stroke:none;stroke-width:15;marker:none;color-rendering:auto;image-rendering:auto;shape-rendering:auto;text-rendering:auto;enable-background:accumulate" />
  </g>
</svg>
